<svg width="91" height="34" viewBox="0 0 91 34" fill="none" xmlns="http://www.w3.org/2000/svg">
<g clip-path="url(#clip0_338_7634)">
<path d="M14.05 8.112L7.024 4.056L0 8.112V4.056L7.025 0L14.051 4.056L14.05 8.112Z" fill="#A435F0"/>
<path d="M0 11.5179H3.68V20.4589C3.68 22.7689 5.405 23.8949 7.025 23.8949C8.659 23.8949 10.371 22.7389 10.371 20.4279V11.5179H14.051V20.6719C14.051 22.7999 13.382 24.4419 12.044 25.5679C10.705 26.6929 9.033 27.2409 6.994 27.2409C4.957 27.2409 3.284 26.6939 1.977 25.5679C0.669 24.4429 0 22.8619 0 20.7629V11.5179ZM45.866 22.6299C44.752 23.6219 43.483 24.1079 42.036 24.1079C39.396 24.1079 37.626 22.6039 37.426 20.2749H49.316C49.316 20.2749 49.396 19.5229 49.396 18.8169C49.396 16.6269 48.696 14.8019 47.266 13.3119C45.868 11.8219 44.044 11.0919 41.823 11.0919C39.482 11.0919 37.565 11.8219 36.044 13.3119C34.554 14.8019 33.794 16.7479 33.794 19.1819V19.3019C33.794 21.7049 34.554 23.6209 36.044 25.0509C37.534 26.4799 39.511 27.2099 41.914 27.2099C44.708 27.2099 46.931 26.1079 48.599 24.2079L45.866 22.6299ZM38.872 15.1669C39.692 14.5279 40.697 14.1939 41.822 14.1939C42.886 14.1939 43.768 14.5279 44.529 15.1979C45.255 15.8079 45.647 16.5569 45.681 17.4179H37.52C37.638 16.5279 38.088 15.7779 38.873 15.1679L38.872 15.1669ZM82.91 29.2759C81.417 32.8009 79.855 33.9999 77.46 33.9999H75.8V30.7379H77.142C77.966 30.7379 78.732 30.4279 79.462 28.7439L80.192 27.0579L73.896 11.5179H77.637L82.108 22.7099L86.701 11.5179H90.441L82.91 29.2759ZM28.377 5.64893V12.9059C27.171 11.8259 25.295 11.1829 23.481 11.1829C21.321 11.1829 19.497 11.9429 18.007 13.4929C16.547 15.0139 15.817 16.8989 15.817 19.1799C15.817 21.4619 16.547 23.3469 18.007 24.8979C19.497 26.4189 21.322 27.1799 23.481 27.1799C25.971 27.1799 27.545 26.2009 28.377 25.4339V26.8449H32.027V5.64993L28.377 5.64893ZM27.282 22.5269C26.4 23.4089 25.275 23.8659 23.967 23.8659C22.659 23.8659 21.595 23.4089 20.713 22.5269C19.863 21.6449 19.436 20.5199 19.436 19.1819C19.436 17.8429 19.862 16.7179 20.713 15.8359C21.595 14.9539 22.659 14.4979 23.967 14.4979C25.275 14.4979 26.4 14.9539 27.282 15.8359C28.194 16.7179 28.652 17.8429 28.652 19.1819C28.652 20.5199 28.194 21.6449 27.282 22.5269ZM68.222 11.2139C65.45 11.2139 64.009 12.3639 63.022 13.4719C62.627 12.7189 61.515 11.2139 58.917 11.2139C56.721 11.2139 55.427 12.3239 54.781 13.1139V11.5199H51.163V26.8469H54.781V18.0269C54.781 15.9589 56.059 14.4689 57.761 14.4689C59.496 14.4689 60.499 15.7769 60.499 17.8749V26.8459H64.118V18.0259C64.118 15.9279 65.364 14.4679 67.158 14.4679C68.892 14.4679 69.895 15.7759 69.895 17.8729V26.8449H73.545V17.3569C73.545 13.3609 71.397 11.2149 68.222 11.2149V11.2139Z" fill="black"/>
</g>
<defs>
<clipPath id="clip0_338_7634">
<rect width="91" height="34" fill="white"/>
</clipPath>
</defs>
</svg>
