<svg width="116" height="39" viewBox="0 0 116 39" fill="none" xmlns="http://www.w3.org/2000/svg">
<g clip-path="url(#clip0_338_5050)">
<g clip-path="url(#clip1_338_5050)">
<mask id="mask0_338_5050" style="mask-type:luminance" maskUnits="userSpaceOnUse" x="12" y="8" width="93" height="18">
<path d="M104.504 8.73633H12.959V25.0819H104.504V8.73633Z" fill="white"/>
</mask>
<g mask="url(#mask0_338_5050)">
<path d="M66.7332 8.73633V15.1646C67.3404 14.7512 68.0232 14.4615 68.7425 14.3122C69.4618 14.1629 70.2035 14.1569 70.925 14.2946C71.6467 14.4323 72.334 14.7109 72.9478 15.1145C73.5616 15.5181 74.0898 16.0389 74.5021 16.6468L74.5688 16.7384C75.1925 17.7137 75.479 18.8666 75.3842 20.0203C75.2895 21.1741 74.8187 22.2648 74.0442 23.1251C73.1647 24.1397 71.9385 24.7899 70.6052 24.9487C69.952 25.0611 69.2829 25.0409 68.6377 24.8894C67.9925 24.7377 67.3845 24.4577 66.8498 24.066C66.7748 24.2992 66.7249 24.4824 66.6582 24.6989H64.1602V9.32757L66.7332 8.73633ZM72.8368 19.6112C72.8562 19.0039 72.6951 18.4046 72.374 17.8888C72.0528 17.373 71.5861 16.9641 71.0325 16.7137C70.479 16.4631 69.8636 16.3824 69.2642 16.4816C68.6648 16.5807 68.1082 16.8554 67.6649 17.2708C67.2215 17.6863 66.9113 18.2238 66.7733 18.8155C66.6354 19.4072 66.676 20.0265 66.89 20.5952C67.104 21.1638 67.4818 21.6562 67.9755 22.0102C68.4694 22.3642 69.057 22.5638 69.6643 22.5839H69.7309C70.5339 22.5909 71.3079 22.2841 71.8881 21.7289C72.4682 21.1736 72.8086 20.4137 72.8368 19.6112Z" fill="#6A6F73"/>
<path d="M15.9564 21.2763C16.1786 21.6097 16.4646 21.8958 16.7979 22.1183C17.1311 22.3408 17.5051 22.4951 17.8982 22.5725C18.2913 22.6499 18.6959 22.6487 19.0886 22.5692C19.4813 22.4896 19.8544 22.3332 20.1864 22.109C20.3578 21.9953 20.5168 21.8642 20.6611 21.7176C20.7616 21.5887 20.8999 21.4944 21.0568 21.4481C21.2135 21.4018 21.3809 21.4058 21.5354 21.4595C22.1432 21.626 22.7594 21.7676 23.5339 21.9591C23.2095 22.4609 22.8505 22.9394 22.4597 23.3913C21.751 24.1426 20.841 24.6741 19.8384 24.9223C18.8358 25.1703 17.783 25.1244 16.8057 24.7902C15.8101 24.5129 14.9186 23.9477 14.2431 23.1655C13.5675 22.3833 13.1381 21.419 13.0087 20.3937C12.8296 19.0346 13.1688 17.6579 13.9588 16.5377C14.7489 15.4175 15.9317 14.6359 17.272 14.3483C17.9829 14.1808 18.72 14.1558 19.4407 14.2747C20.1614 14.3937 20.8513 14.6542 21.4707 15.0413C22.0901 15.4285 22.6267 15.9345 23.0494 16.5301C23.4721 17.1258 23.7726 17.7993 23.9336 18.5117C23.9295 18.5589 23.9295 18.6062 23.9336 18.6534C24.1001 19.411 24.0751 19.486 23.3007 19.6359L16.431 21.1764C16.268 21.1798 16.107 21.2137 15.9564 21.2763ZM15.4568 19.2112L20.9525 17.9622C20.6337 17.4501 20.1633 17.0499 19.6068 16.8171C19.0503 16.5844 18.435 16.5306 17.8466 16.6632C17.223 16.7649 16.6505 17.0699 16.2183 17.5307C15.7861 17.9916 15.5183 18.5824 15.4568 19.2112Z" fill="#6A6F73"/>
<path d="M96.5603 21.2764C96.9723 21.9133 97.6088 22.3716 98.3429 22.5599C99.0778 22.7482 99.8568 22.6526 100.524 22.2923C100.767 22.1822 100.986 22.0236 101.165 21.826C101.498 21.343 101.89 21.393 102.364 21.5346C102.839 21.6761 103.455 21.7927 104.029 21.9343C103.618 22.8536 102.947 23.6323 102.098 24.1742C100.864 24.9848 99.3585 25.2727 97.9128 24.9744C96.4671 24.6762 95.1992 23.8164 94.3869 22.5837C93.9874 22.0087 93.7045 21.3608 93.5543 20.6769C93.4246 19.9692 93.436 19.2429 93.5879 18.5398C93.7398 17.8365 94.029 17.1702 94.4391 16.579C94.8491 15.988 95.372 15.4837 95.9774 15.0951C96.5828 14.7067 97.259 14.4416 97.9672 14.3152H98.1503C99.3922 14.1342 100.658 14.3736 101.747 14.9952C102.837 15.6169 103.687 16.5852 104.163 17.7458C104.295 18.1696 104.404 18.6005 104.488 19.0365C104.571 19.3779 104.413 19.5278 104.063 19.6027C101.723 20.119 99.3827 20.6519 97.0431 21.1848L96.5603 21.2764ZM101.556 17.9457C101.167 17.3397 100.571 16.8948 99.8801 16.6929C99.1884 16.4909 98.4474 16.5454 97.7927 16.8465C96.7348 17.3129 95.9437 18.4036 96.1276 19.1698L101.556 17.9457Z" fill="#6A6F73"/>
<path d="M37.0407 21.2766C37.2572 22.0343 38.6228 22.7587 39.7387 22.6339C40.5436 22.5656 41.2945 22.2006 41.8453 21.6097C41.907 21.5445 41.9822 21.4936 42.0656 21.4605C42.1491 21.4274 42.2387 21.4129 42.3283 21.4181C43.036 21.5514 43.7355 21.7262 44.5266 21.9011C44.1593 22.7105 43.5849 23.4085 42.8612 23.9245C42.2816 24.3674 41.6205 24.6918 40.9156 24.8792C40.2107 25.0665 39.4758 25.1133 38.7528 25.0166C38.0299 24.92 37.333 24.6819 36.702 24.3159C36.0711 23.9499 35.5184 23.4632 35.0756 22.8836C34.5396 22.1856 34.1798 21.3687 34.0264 20.5021C33.7976 19.1054 34.1241 17.6744 34.9364 16.5153C35.7486 15.3561 36.982 14.5605 38.373 14.2986C39.8025 14.0024 41.2911 14.2835 42.5141 15.0807C43.7371 15.8778 44.5953 17.1263 44.9013 18.5537C45.0845 19.3863 45.0595 19.3863 44.2768 19.5945L37.507 21.1266L37.0407 21.2766ZM42.0369 17.9458C41.6744 17.3872 41.1368 16.9648 40.5084 16.7447C39.8799 16.5247 39.1962 16.5196 38.5645 16.7301C37.6236 17.0048 36.4662 18.154 36.591 19.1782L42.0369 17.9458Z" fill="#6A6F73"/>
<path d="M48.598 15.1065L49.5973 14.5653C50.5669 14.0378 51.7062 13.9169 52.7648 14.2292C53.8235 14.5415 54.7148 15.2614 55.2429 16.2306C55.5824 16.8539 55.7599 17.5526 55.7591 18.2623V24.749H53.4193C53.0446 24.749 53.1362 24.4575 53.1362 24.2494V19.6696C53.1333 19.2261 53.0971 18.7836 53.028 18.3456C52.7948 17.1132 51.9455 16.5636 50.5299 16.6802C50.0123 16.6912 49.5202 16.9068 49.1613 17.2798C48.8023 17.6528 48.6058 18.1528 48.6147 18.6704C48.6106 18.6896 48.6106 18.7094 48.6147 18.7287V24.0995C48.6147 24.5908 48.5065 24.8072 47.9735 24.7656C47.4407 24.724 46.6663 24.7656 45.9668 24.7656V14.9566C45.9668 14.4736 46.125 14.3487 46.5746 14.3737C47.0348 14.407 47.4967 14.407 47.9569 14.3737C48.3816 14.3321 48.7063 14.4236 48.598 15.1065Z" fill="#6A6F73"/>
<path d="M23.3672 14.3736H25.8653C26.0401 14.3736 26.2732 14.665 26.3482 14.8732C27.1142 16.83 27.8637 18.7951 28.6131 20.7602C28.6881 20.9601 28.7713 21.1516 28.9046 21.4597C29.0294 21.2016 29.1127 21.035 29.1877 20.8685C29.9621 18.8784 30.7365 16.8883 31.4859 14.8815C31.6357 14.4902 31.8106 14.3153 32.2519 14.3402H34.6084C34.2753 15.1729 33.984 15.914 33.6842 16.6551C32.635 19.2031 31.5803 21.7512 30.52 24.2992C30.4846 24.4351 30.4007 24.5533 30.2841 24.6316C30.1675 24.7098 30.0263 24.7426 29.8871 24.7238H27.947C27.8432 24.7116 27.7437 24.6761 27.6557 24.6197C27.5677 24.5635 27.4936 24.4881 27.4391 24.3991C26.0984 21.2266 24.7828 17.9791 23.4671 14.7982C23.4235 14.6593 23.3902 14.5174 23.3672 14.3736Z" fill="#6A6F73"/>
<path d="M60.9553 10.0601V13.7322C60.9553 14.2568 61.1219 14.4317 61.6215 14.3817C61.9927 14.3484 62.366 14.3484 62.7372 14.3817C62.8705 14.3817 63.087 14.5399 63.087 14.6398V16.8548H60.9803V24.732H58.3989C58.3156 24.732 58.1825 24.4072 58.1825 24.2324V16.8798H56.9334C56.517 16.8798 56.4671 16.8048 56.4754 16.4718V14.7981C56.4754 14.4983 56.6004 14.3984 56.8918 14.3984C57.1832 14.3984 57.891 14.49 58.0492 14.2818C58.177 13.8729 58.2195 13.4421 58.1741 13.0161V11.0677C58.1741 10.9094 58.3074 10.6513 58.4239 10.618C59.2399 10.4015 60.0726 10.2516 60.9553 10.0601Z" fill="#6A6F73"/>
<path d="M88.6824 10.7014H91.4803V13.9655C91.4803 14.2903 91.5885 14.4235 91.9049 14.4152C92.3487 14.3902 92.7934 14.3902 93.2373 14.4152C93.318 14.4287 93.394 14.4626 93.4581 14.5135C93.5222 14.5645 93.5723 14.631 93.6036 14.7066V16.8716H92.1464C91.6801 16.8716 91.4469 16.9799 91.4552 17.5378V24.6989H88.7324V17.4711C88.7324 17.0548 88.6159 16.8882 88.1911 16.9216C87.7665 16.9548 87.4584 16.9216 87.0171 16.9216V14.6983C87.0171 14.5984 87.1919 14.4901 87.3002 14.4152C87.4084 14.3403 87.4334 14.4152 87.5083 14.4152C88.7074 14.4152 88.7074 14.4152 88.7074 13.2078L88.6824 10.7014Z" fill="#6A6F73"/>
<path d="M79.0408 24.7908H76.676C76.268 24.7908 76.3679 24.4826 76.3596 24.2495V14.8568C76.3596 14.4904 76.4845 14.3572 76.8509 14.3655H78.9909C79.0041 14.6116 79.0348 14.8565 79.0825 15.0983L82.0885 14.2656V16.9302C81.7055 16.9885 81.3058 17.0301 80.9144 17.1134C80.6487 17.1323 80.3895 17.2037 80.1516 17.3235C79.9137 17.4432 79.7019 17.6089 79.5285 17.811C79.3551 18.0131 79.2234 18.2476 79.1411 18.5009C79.0589 18.7542 79.0276 19.0212 79.0492 19.2867C79.045 19.3143 79.045 19.3423 79.0492 19.37V24.0996L79.0408 24.7908Z" fill="#6A6F73"/>
<path d="M85.7857 24.724H83.2876C83.2876 24.4992 83.2876 24.316 83.2876 24.1328V14.9733C83.2876 14.5069 83.4125 14.3404 83.8788 14.3737C84.3451 14.407 84.9779 14.3737 85.5442 14.3737C85.8023 14.3737 85.9272 14.457 85.9272 14.7401V24.5658C85.8893 24.6261 85.8414 24.6796 85.7857 24.724Z" fill="#6A6F73"/>
<path d="M84.5694 8.96923C84.9971 8.96871 85.4085 9.13263 85.7186 9.42722C86.0285 9.72172 86.2134 10.1243 86.2348 10.5513C86.2348 10.993 86.0593 11.4166 85.747 11.7289C85.4347 12.0413 85.0111 12.2167 84.5694 12.2167C84.1173 12.2257 83.6799 12.0557 83.3524 11.7438C83.0249 11.432 82.8338 11.0034 82.8208 10.5513C82.8314 10.3326 82.8851 10.118 82.9788 9.92001C83.0725 9.72198 83.2044 9.54441 83.3669 9.39751C83.5292 9.25052 83.7192 9.13703 83.9255 9.06354C84.1318 8.99004 84.3506 8.958 84.5694 8.96923Z" fill="#6A6F73"/>
</g>
</g>
</g>
<defs>
<clipPath id="clip0_338_5050">
<rect width="115" height="38" fill="white" transform="translate(0.799805 0.0998535)"/>
</clipPath>
<clipPath id="clip1_338_5050">
<rect width="115" height="38" fill="white" transform="translate(0.799805 0.0998535)"/>
</clipPath>
</defs>
</svg>
