<svg width="44" height="39" viewBox="0 0 44 39" fill="none" xmlns="http://www.w3.org/2000/svg">
<g clip-path="url(#clip0_338_5037)">
<path fill-rule="evenodd" clip-rule="evenodd" d="M21.9321 3.55444C24.9932 3.55444 27.9856 4.46218 30.5308 6.16287C33.0761 7.86355 35.0599 10.2808 36.2313 13.1089C37.4027 15.9371 37.7093 19.0491 37.112 22.0514C36.5148 25.0537 35.0409 27.8116 32.8762 29.9761C30.7117 32.1407 27.9539 33.6147 24.9515 34.2119C21.9493 34.8092 18.8372 34.5026 16.0091 33.3312C13.1809 32.1597 10.7637 30.1759 9.06301 27.6306C7.36232 25.0855 6.45459 22.0931 6.45459 19.0319C6.47248 14.9326 8.10888 11.0062 11.0076 8.10746C13.9063 5.20874 17.8327 3.57234 21.9321 3.55444ZM21.9321 5.49763C19.2634 5.50339 16.6564 6.29962 14.44 7.78579C12.2236 9.27198 10.4971 11.3815 9.47854 13.848C8.45998 16.3145 8.19499 19.0275 8.71701 21.6446C9.23904 24.2616 10.5247 26.6653 12.4117 28.5523C14.2987 30.4393 16.7023 31.7249 19.3193 32.2469C21.9364 32.7689 24.6493 32.504 27.116 31.4854C29.5824 30.4668 31.6919 28.7404 33.1781 26.5239C34.6643 24.3075 35.4606 21.7005 35.4663 19.0319C35.4586 15.4465 34.0296 12.0106 31.4925 9.47709C28.9555 6.9437 25.5174 5.51962 21.9321 5.51706V5.49763ZM12.8963 11.7643C13.8015 10.6373 14.9086 9.68851 16.1607 8.96625L19.5711 18.3615H24.3707L27.7616 9.00511C28.9291 9.69136 29.968 10.5757 30.8318 11.6186L25.9739 24.3271L24.1666 19.7411H19.5128L17.7347 24.3271L12.8963 11.7643ZM32.7847 14.9221C33.7729 17.5813 33.7578 20.5097 32.7419 23.1586C31.726 25.8073 29.7791 27.9949 27.2661 29.3114L32.7847 14.9221ZM24.8565 30.2538C22.8753 30.7618 20.7958 30.7451 18.8229 30.2052V29.9623L21.8155 22.1896L24.7982 29.9623L24.8565 30.2538ZM16.3648 29.185C14.5407 28.1896 13.0181 26.7217 11.9566 24.9354C10.8949 23.149 10.3336 21.1099 10.3312 19.0319C10.321 17.7076 10.5447 16.392 10.9919 15.1456L16.3648 29.185ZM21.9321 7.43109C22.932 7.42893 23.928 7.5563 24.8954 7.81001L21.9806 15.9131L19.0658 7.8003C20.0018 7.55662 20.9649 7.43257 21.9321 7.43109Z" fill="#6A6F73"/>
</g>
<defs>
<clipPath id="clip0_338_5037">
<rect width="44" height="38" fill="white" transform="translate(0 0.0998535)"/>
</clipPath>
</defs>
</svg>
