<svg width="116" height="39" viewBox="0 0 116 39" fill="none" xmlns="http://www.w3.org/2000/svg">
<g clip-path="url(#clip0_338_5013)">
<mask id="mask0_338_5013" style="mask-type:luminance" maskUnits="userSpaceOnUse" x="12" y="6" width="93" height="27">
<path d="M104.105 6.14526H12.5591V32.0544H104.105V6.14526Z" fill="white"/>
</mask>
<g mask="url(#mask0_338_5013)">
<path d="M80.0646 25.7702C76.9385 25.7702 74.9959 23.9649 74.9959 21.0548C74.9959 18.0346 76.7884 16.1556 79.6747 16.1556H79.9169C80.2789 16.1556 80.7774 16.1675 81.4584 16.2522V12.6067H83.4973V25.4417C83.4973 25.4417 81.56 25.7702 80.0646 25.7702ZM80.0463 17.7561C78.0712 17.7561 77.1109 18.819 77.1109 21.0042C77.1109 22.9662 78.2697 24.1857 80.1313 24.1857C80.4892 24.1857 80.8991 24.1621 81.4578 24.1145V17.8869C80.8997 17.7973 80.4497 17.7561 80.0463 17.7561ZM52.1373 25.4758L46.6298 15.8936L46.628 25.4758H44.7085V13.3451H47.3958L52.9033 22.842L52.901 13.3451H54.8459V25.4758H52.1373ZM69.6804 25.6625C68.7531 25.6625 67.7862 25.5589 66.6351 25.3381L66.5105 25.3145V23.6198L66.6924 23.6586C67.7077 23.8748 68.5842 24.0591 69.4613 24.0591C70.1694 24.0591 71.819 23.9484 71.819 22.9091C71.819 22.0376 70.6791 21.8186 69.7636 21.6437L69.7058 21.6319C69.5345 21.6001 69.3733 21.5677 69.2374 21.5336C67.8943 21.1861 66.4615 20.6638 66.4615 18.8696C66.4615 17.1196 67.8506 16.1168 70.2733 16.1168C71.4362 16.1168 72.2803 16.2404 72.9588 16.3417L73.2884 16.39V18.0346L73.113 18.0029C72.3452 17.8621 71.4451 17.7173 70.5798 17.7173C69.6178 17.7173 68.4761 17.8969 68.4761 18.7501C68.4761 19.4584 69.4104 19.661 70.4924 19.896C72.0056 20.2222 73.8814 20.632 73.8814 22.6906C73.8814 24.579 72.3517 25.6625 69.6804 25.6625ZM89.2208 25.6625C87.1106 25.6625 85.1562 25.2915 85.1562 22.6053C85.1562 19.6816 88.1784 19.6816 89.9851 19.6816C90.1647 19.6816 91.014 19.7211 91.2745 19.7323C91.2721 18.0923 91.2514 17.7014 88.8659 17.7014C87.9204 17.7014 86.8702 17.8874 85.943 18.0535L85.7658 18.0853V16.4659L85.885 16.4406C86.96 16.2227 87.9965 16.1168 89.0531 16.1168C91.3648 16.1168 93.3233 16.3488 93.3233 19.2082V25.444L93.1828 25.4599C91.5816 25.639 90.31 25.6625 89.2208 25.6625ZM89.9344 21.1284C88.192 21.1284 87.1123 21.384 87.1123 22.6559C87.1123 24.128 88.4897 24.2499 89.7819 24.2499C90.2639 24.2499 91.1315 24.1881 91.3967 24.1692V21.1791C91.0234 21.1632 90.0518 21.1284 89.9344 21.1284ZM60.6132 25.6625C58.5 25.6625 56.5463 25.2915 56.5463 22.6053C56.5463 19.6816 59.5684 19.6816 61.3745 19.6816C61.5547 19.6816 62.4057 19.7211 62.6668 19.7323C62.6644 18.0923 62.6414 17.7014 60.2559 17.7014C59.3097 17.7014 58.2596 17.8874 57.3324 18.0535L57.1551 18.0853V16.4659L57.2774 16.4406C58.3189 16.2259 59.3796 16.1175 60.4431 16.1168C62.7542 16.1168 64.7132 16.3488 64.7132 19.2082V25.444L64.5721 25.4599C62.9716 25.639 61.6999 25.6625 60.6132 25.6625ZM61.3237 21.1284C59.582 21.1284 58.5047 21.384 58.5047 22.6559C58.5047 24.128 59.8797 24.2499 61.1719 24.2499C61.6562 24.2499 62.5238 24.1881 62.7891 24.1692V21.1791C62.4128 21.1632 61.4413 21.1284 61.3237 21.1284Z" fill="#6A6F73"/>
<mask id="mask1_338_5013" style="mask-type:alpha" maskUnits="userSpaceOnUse" x="94" y="15" width="10" height="15">
<path d="M94.6543 15.5669H103.53V29.6991H94.6543V15.5669Z" fill="#6A6F73"/>
</mask>
<g mask="url(#mask1_338_5013)">
<path d="M101.441 29.5977V25.6183C100.646 25.729 100.224 25.729 99.8826 25.729C99.0743 25.729 98.1769 25.5542 97.4826 25.2621C95.9272 24.6173 95.0005 22.9803 95.0005 20.8799C95.0005 19.8318 95.257 17.9151 96.9704 16.8823C97.8315 16.37 98.8463 16.1509 100.374 16.1509C100.92 16.1509 101.658 16.1922 102.372 16.2334L103.53 16.2934V28.6756L101.441 29.5977ZM100.221 17.752C98.1493 17.7514 97.0991 18.8054 97.0991 20.8799C97.0991 23.5509 98.6658 24.1121 99.9828 24.1121C100.303 24.1121 100.663 24.1121 101.461 24.0108V17.8097C100.837 17.7685 100.548 17.752 100.221 17.752Z" fill="#6A6F73"/>
</g>
<mask id="mask2_338_5013" style="mask-type:alpha" maskUnits="userSpaceOnUse" x="27" y="6" width="17" height="20">
<path d="M27.3242 6.15479H43.2708V25.5772H27.3242V6.15479Z" fill="#6A6F73"/>
</mask>
<g mask="url(#mask2_338_5013)">
<path d="M35.6001 6.15479L28.8564 24.6267C28.773 24.8542 28.6271 25.0536 28.4353 25.2023C28.2435 25.3509 28.0136 25.4426 27.772 25.4671V25.4759H34.9008C35.4589 25.4759 35.9367 25.122 36.1144 24.6274L42.8605 6.15479H35.6001Z" fill="#6A6F73"/>
</g>
<path d="M27.1902 25.1956C27.6036 25.1956 27.9658 24.9907 28.1872 24.6804C28.2103 24.648 28.2912 24.5349 28.3484 24.3812L30.822 17.6024L29.375 13.6437C29.2907 13.4433 29.1541 13.2689 28.9795 13.1387C28.8049 13.0085 28.5986 12.9273 28.3819 12.9034C28.1652 12.8795 27.946 12.9138 27.7471 13.0027C27.5481 13.0917 27.3767 13.2321 27.2505 13.4093C27.2268 13.4417 27.1306 13.586 27.0893 13.7085L24.6157 20.4848L26.0692 24.4595C26.1635 24.678 26.3199 24.8642 26.5192 24.995C26.7184 25.1258 26.9517 25.1955 27.1902 25.1956Z" fill="#6A6F73"/>
<mask id="mask3_338_5013" style="mask-type:alpha" maskUnits="userSpaceOnUse" x="11" y="12" width="17" height="20">
<path d="M11.9683 12.0337H27.9148V31.9348H11.9683V12.0337Z" fill="#6A6F73"/>
</mask>
<g mask="url(#mask3_338_5013)">
<path d="M27.7188 12.613H20.5115C19.9534 12.613 19.4755 12.9651 19.2954 13.4622L12.5518 31.9341H19.8122L26.5564 13.4628C26.644 13.2224 26.8012 13.0135 27.0082 12.8626C27.2152 12.7117 27.4625 12.6256 27.7188 12.6154V12.613Z" fill="#6A6F73"/>
</g>
</g>
</g>
<defs>
<clipPath id="clip0_338_5013">
<rect width="115" height="38" fill="white" transform="translate(0.399902 0.0998535)"/>
</clipPath>
</defs>
</svg>
