<svg width="68" height="39" viewBox="0 0 68 39" fill="none" xmlns="http://www.w3.org/2000/svg">
<g clip-path="url(#clip0_338_5041)">
<path d="M34.7503 13.8017C31.2562 13.8017 28.2155 15.7672 26.6841 18.6528C25.1523 15.7672 22.1132 13.8017 18.6166 13.8017C16.5635 13.8017 14.6666 14.4809 13.1361 15.6279V7.93502C13.118 6.94097 12.3073 6.14526 11.3099 6.14526C10.3124 6.14526 9.50964 6.94097 9.48682 7.93502V23.0837H9.48866C9.5692 28.0575 13.6225 32.0645 18.6166 32.0645C22.1132 32.0645 25.1523 30.0971 26.6841 27.2144C28.2155 30.0971 31.2562 32.0645 34.7503 32.0645C39.7916 32.0645 43.8812 27.9765 43.8812 22.9312C43.8812 17.8886 39.7916 13.8017 34.7503 13.8017ZM18.6166 28.4086C15.5914 28.4086 13.1361 25.9579 13.1361 22.9325C13.1361 19.9082 15.5914 17.4573 18.6166 17.4573C21.6415 17.4573 24.0916 19.9082 24.0916 22.9312C24.0916 25.9572 21.6415 28.4086 18.6166 28.4086ZM34.7503 28.4086C31.7244 28.4086 29.2709 25.9572 29.2709 22.9312C29.2709 19.9082 31.7244 17.4573 34.7503 17.4573C37.775 17.4573 40.2272 19.9082 40.2272 22.9312C40.2272 25.9572 37.775 28.4086 34.7503 28.4086Z" fill="#6A6F73"/>
<path d="M58.0496 29.0072L53.0865 22.9194L58.0557 16.8198C58.684 16.0151 58.5037 14.8914 57.6364 14.2946C56.7681 13.6925 55.5497 13.8468 54.8778 14.6275V14.6265L50.6026 19.8662L46.3312 14.6265V14.6275C45.6661 13.8468 44.4402 13.6925 43.5745 14.2946C42.7087 14.892 42.5277 16.0151 43.1592 16.8198H43.1574L48.1178 22.9194L43.1574 29.0072H43.1592C42.5277 29.8145 42.7087 30.9344 43.5745 31.5339C44.4402 32.1334 45.6661 31.9807 46.3312 31.1989L50.6026 25.9665L54.8718 31.1989C55.5444 31.9807 56.7623 32.1334 57.6307 31.5339C58.4982 30.9344 58.6792 29.8145 58.0496 29.0072Z" fill="#6A6F73"/>
</g>
<defs>
<clipPath id="clip0_338_5041">
<rect width="67" height="38" fill="white" transform="translate(0.600098 0.0998535)"/>
</clipPath>
</defs>
</svg>
